<svg width="390" height="269" viewBox="0 0 390 269" fill="none" xmlns="http://www.w3.org/2000/svg">
<rect width="390" height="269" fill="white"/>
<path d="M238.162 105.62C229.345 91.8919 215.298 83.3528 199.62 82.1982L199.66 81.6199C215.512 82.7865 229.712 91.4213 238.62 105.299L238.162 105.62Z" fill="#0CCAFF"/>
<path d="M247.201 140.62L246.666 140.545C246.944 138.283 247.083 135.965 247.083 133.671C247.083 126.068 245.582 118.728 242.62 111.863L243.107 111.62C246.099 118.559 247.62 125.972 247.62 133.659C247.62 135.986 247.481 138.324 247.201 140.62Z" fill="#0CCAFF"/>
<path d="M222.922 177.62L222.62 177.148C233.605 170.367 241.587 159.88 245.08 147.62L245.62 147.773C242.097 160.168 234.031 170.766 222.922 177.62Z" fill="#0CCAFF"/>
<path d="M195.645 185.62C188.334 185.62 181.263 184.119 174.62 181.148L174.848 180.62C181.41 183.559 188.407 185.049 195.645 185.049C202.485 185.049 209.13 183.707 215.401 181.075L215.62 181.603C209.275 184.266 202.558 185.62 195.645 185.62Z" fill="#0CCAFF"/>
<path d="M144.345 129.62L143.62 129.584C143.848 127.582 144.278 125.579 144.908 123.62L145.62 123.717C144.988 125.65 144.56 127.635 144.345 129.62Z" fill="#0CCAFF"/>
<path d="M148.144 114.62L147.62 114.415C154.758 96.0707 172.01 83.2011 191.578 81.6199L191.62 82.175C172.277 83.7466 155.209 96.4822 148.144 114.62Z" fill="#0CCAFF"/>
<path d="M249.038 110.62C242.793 96.7106 230.983 85.6219 216.62 80.207L216.849 79.6199C231.367 85.098 243.303 96.3095 249.62 110.361L249.038 110.62Z" fill="#0CCAFF"/>
<path d="M235.059 175.62L234.62 175.172C246.463 164.306 252.982 149.588 252.982 133.75C252.982 132.721 252.951 131.68 252.899 130.652L253.536 130.62C253.589 131.661 253.62 132.709 253.62 133.75C253.632 149.762 247.038 164.632 235.059 175.62Z" fill="#0CCAFF"/>
<path d="M195.751 191.62C188.827 191.62 182.051 190.466 175.62 188.178L175.836 187.62C182.194 189.88 188.89 191.022 195.739 191.022C200.04 191.022 204.319 190.563 208.477 189.665L208.62 190.24C204.422 191.161 200.09 191.62 195.751 191.62Z" fill="#0CCAFF"/>
<path d="M155.189 174.62C144.503 163.665 138.62 149.104 138.62 133.62H139.231C139.231 148.939 145.056 163.347 155.62 174.177L155.189 174.62Z" fill="#0CCAFF"/>
<path d="M150.113 99.6199L149.62 99.2533C158.716 86.893 172.543 78.6483 187.54 76.6199L187.62 77.2314C172.785 79.2389 159.107 87.402 150.113 99.6199Z" fill="#0CCAFF"/>
<path d="M195.621 201.62C158.13 201.62 127.62 171.12 127.62 133.62C127.62 96.1194 158.118 65.6199 195.621 65.6199C233.122 65.6199 263.62 96.1194 263.62 133.62C263.62 171.12 233.11 201.62 195.621 201.62ZM195.621 66.3658C158.533 66.3658 128.355 96.5435 128.355 133.631C128.355 170.717 158.533 200.895 195.621 200.895C232.708 200.895 262.886 170.717 262.886 133.631C262.886 96.5435 232.708 66.3658 195.621 66.3658Z" fill="#0CCAFF"/>
<path d="M142.202 76.6199L141.62 75.9796C156.441 62.2058 175.72 54.6199 195.885 54.6199C209.435 54.6199 222.829 58.0976 234.62 64.6751L234.203 65.4407C222.548 58.9376 209.299 55.4913 195.885 55.4913C175.927 55.4913 156.868 63.0047 142.202 76.6199Z" fill="#0CCAFF"/>
<path d="M221.909 207.62L221.62 206.827C252.808 195.862 273.764 166.556 273.764 133.895C273.764 126.041 272.578 118.3 270.236 110.876L271.049 110.62C273.422 118.127 274.62 125.961 274.62 133.895C274.62 166.913 253.439 196.543 221.909 207.62Z" fill="#0CCAFF"/>
<path d="M148.109 197.62C128.096 182.368 116.62 159.039 116.62 133.613C116.62 126.49 117.537 119.429 119.351 112.62L120.166 112.848C118.373 119.586 117.467 126.573 117.467 133.613C117.467 158.768 128.82 181.847 148.62 196.933L148.109 197.62Z" fill="#0CCAFF"/>
<path d="M276.728 99.6199C267.886 78.9696 250.722 62.153 229.62 53.4819L229.993 52.6199C251.323 61.3817 268.674 78.3817 277.62 99.2645L276.728 99.6199Z" fill="#0CCAFF"/>
<path d="M196.199 221.62C147.908 221.62 108.62 182.078 108.62 133.481C108.62 131.527 108.681 129.553 108.814 127.62L109.753 127.681C109.631 129.605 109.57 131.548 109.57 133.481C109.57 181.553 148.43 220.664 196.199 220.664C206.547 220.664 216.67 218.843 226.293 215.254L226.62 216.149C216.895 219.778 206.659 221.62 196.199 221.62Z" fill="#0CCAFF"/>
<path d="M114.484 102.62L113.62 102.29C117.369 92.4664 122.848 83.4932 129.927 75.6199L130.62 76.2407C123.613 84.0226 118.194 92.9064 114.484 102.62Z" fill="#0CCAFF"/>
<path d="M253.406 174.62L248.704 171.259C256.639 160.278 260.834 147.302 260.834 133.741C260.834 112.978 250.658 93.3761 233.62 81.3149L236.978 76.6199C255.534 89.759 266.62 111.109 266.62 133.73C266.63 148.523 262.054 162.651 253.406 174.62Z" fill="#0CCAFF"/>
<path d="M195.62 204.62C192.947 204.62 190.254 204.461 187.6 204.156C162.107 201.191 140.273 184.205 130.62 159.838L135.966 157.62C144.827 179.988 164.862 195.578 188.259 198.301C190.685 198.585 193.162 198.723 195.62 198.723V204.62Z" fill="#0CCAFF"/>
<path d="M131.423 133.62H125.62C125.62 104.992 142.813 79.4734 169.418 68.6199L171.62 73.965C147.199 83.9222 131.423 107.349 131.423 133.62Z" fill="#0CCAFF"/>
<path d="M191.266 144.064H176.254L173.547 151.62H164.62L179.632 112.62H188.608L203.62 151.62H193.973L191.266 144.064ZM188.608 136.498L183.764 122.914L178.921 136.498H188.608Z" fill="#0C6DFF"/>
<path d="M207.62 112.62H216.62V151.62H207.62V112.62Z" fill="#0C6DFF"/>
<mask id="mask0_36_169" style="mask-type:luminance" maskUnits="userSpaceOnUse" x="69" y="8" width="253" height="253">
<path d="M69 8H321.62V260.62H69V8Z" fill="white"/>
</mask>
<g mask="url(#mask0_36_169)">
<path d="M195.31 260.616C125.661 260.616 69 203.956 69 134.316C69 64.6665 125.661 8.00586 195.31 8.00586C264.959 8.00586 321.62 64.6665 321.62 134.316C321.611 203.956 264.95 260.616 195.31 260.616ZM195.31 14.3145C129.144 14.3145 75.3105 68.1502 75.3105 134.316C75.3105 200.482 129.144 254.317 195.31 254.317C261.476 254.317 315.312 200.482 315.312 134.316C315.302 68.1502 261.476 14.3145 195.31 14.3145Z" fill="#0CCAFF"/>
</g>
<path d="M195.125 247.62C194.499 247.62 193.872 247.61 193.256 247.61L193.347 242.019C194.56 242.038 195.784 242.038 196.996 242.019L197.088 247.61C196.431 247.62 195.784 247.62 195.125 247.62ZM189.421 247.486C188.147 247.424 186.862 247.342 185.598 247.229L186.062 241.659C187.264 241.762 188.486 241.845 189.699 241.894L189.421 247.486ZM200.911 247.476L200.633 241.894C201.836 241.833 203.058 241.751 204.273 241.649L204.734 247.22C203.47 247.333 202.185 247.415 200.911 247.476ZM181.786 246.848C180.522 246.704 179.249 246.53 177.985 246.335L178.827 240.806C180.028 240.99 181.243 241.145 182.434 241.289L181.786 246.848ZM208.548 246.838L207.889 241.289C209.092 241.145 210.304 240.981 211.495 240.806L212.338 246.335C211.095 246.509 209.821 246.685 208.548 246.838ZM174.202 245.699C172.949 245.461 171.685 245.204 170.452 244.936L171.664 239.479C172.846 239.738 174.037 239.983 175.23 240.209L174.202 245.699ZM216.13 245.678L215.104 240.178C216.286 239.952 217.486 239.705 218.668 239.448L219.883 244.906C218.638 245.195 217.373 245.452 216.13 245.678ZM166.72 244.044C165.498 243.724 164.254 243.385 163.032 243.027L164.604 237.661C165.776 238 166.958 238.33 168.119 238.627L166.72 244.044ZM223.612 244.013L222.215 238.596C223.376 238.297 224.558 237.97 225.73 237.619L227.312 242.984C226.079 243.354 224.836 243.705 223.612 244.013ZM159.364 241.875C158.161 241.473 156.937 241.052 155.736 240.6L157.678 235.359C158.829 235.78 159.978 236.192 161.13 236.571L159.364 241.875ZM230.961 241.843L229.193 236.541C230.344 236.159 231.495 235.75 232.625 235.328L234.567 240.569C233.386 241.011 232.173 241.442 230.961 241.843ZM152.158 239.203C150.988 238.719 149.795 238.215 148.624 237.68L150.915 232.583C152.026 233.087 153.156 233.57 154.277 234.022L152.158 239.203ZM238.153 239.182L236.037 234.003C237.147 233.551 238.266 233.066 239.377 232.564L241.668 237.661C240.497 238.196 239.316 238.699 238.153 239.182ZM145.15 236.058C143.999 235.493 142.848 234.907 141.727 234.311L144.359 229.377C145.428 229.942 146.517 230.507 147.605 231.041L145.15 236.058ZM245.121 236.037L242.654 231.022C243.734 230.488 244.824 229.932 245.893 229.367L248.523 234.299C247.402 234.895 246.262 235.481 245.121 236.037ZM251.873 232.44L249.067 227.599C250.116 226.992 251.164 226.365 252.181 225.728L255.14 230.476C254.083 231.135 252.972 231.802 251.873 232.44ZM138.368 232.44C137.257 231.802 136.148 231.135 135.079 230.467L138.038 225.718C139.055 226.356 140.115 226.992 141.162 227.599L138.368 232.44ZM258.367 228.381L255.244 223.736C256.251 223.056 257.258 222.358 258.233 221.659L261.512 226.191C260.474 226.942 259.415 227.672 258.367 228.381ZM131.863 228.369C130.814 227.66 129.756 226.931 128.718 226.182L131.986 221.648C132.972 222.358 133.98 223.067 134.976 223.736L131.863 228.369ZM264.575 223.898L261.152 219.479C262.098 218.749 263.054 217.979 263.989 217.198L267.565 221.504C266.569 222.328 265.571 223.128 264.575 223.898ZM125.646 223.879C124.648 223.098 123.641 222.295 122.654 221.473L126.23 217.167C127.167 217.949 128.123 218.709 129.078 219.449L125.646 223.879ZM270.463 219.006L266.753 214.825C267.659 214.022 268.563 213.191 269.436 212.357L273.29 216.416C272.365 217.29 271.419 218.165 270.463 219.006ZM119.747 218.976C118.791 218.133 117.845 217.259 116.92 216.386L120.773 212.336C121.647 213.17 122.553 214.003 123.457 214.804L119.747 218.976ZM276.023 213.735L272.035 209.808C272.878 208.956 273.721 208.072 274.554 207.168L278.664 210.959C277.791 211.896 276.906 212.831 276.023 213.735ZM114.187 213.694C113.283 212.779 112.398 211.844 111.545 210.919L115.667 207.136C116.479 208.021 117.322 208.904 118.174 209.777L114.187 213.694ZM281.214 208.092L276.969 204.445C277.76 203.519 278.542 202.585 279.302 201.638L283.659 205.144C282.866 206.13 282.045 207.126 281.214 208.092ZM109.008 208.061C108.174 207.086 107.353 206.098 106.562 205.111L110.919 201.608C111.67 202.542 112.449 203.489 113.24 204.414L109.008 208.061ZM286.011 202.111L281.541 198.761C282.261 197.794 282.98 196.798 283.679 195.8L288.262 198.997C287.532 200.045 286.772 201.094 286.011 202.111ZM104.208 202.081C103.447 201.062 102.696 200.025 101.969 198.976L106.552 195.781C107.249 196.777 107.96 197.763 108.69 198.729L104.208 202.081ZM290.4 195.821L285.703 192.779C286.362 191.762 287.009 190.724 287.636 189.686L292.424 192.574C291.777 193.653 291.099 194.752 290.4 195.821ZM99.8311 195.8C99.132 194.731 98.454 193.632 97.8066 192.553L102.595 189.676C103.212 190.703 103.859 191.741 104.528 192.758L99.8311 195.8ZM95.8836 189.243C95.2573 188.123 94.6502 186.992 94.0756 185.872L99.0497 183.324C99.5936 184.393 100.17 185.472 100.766 186.531L95.8836 189.243ZM294.366 189.243L289.474 186.519C290.061 185.462 290.647 184.382 291.202 183.303L296.176 185.853C295.59 186.992 294.983 188.123 294.366 189.243ZM92.3901 182.439C91.8557 181.309 91.3213 180.127 90.8176 178.955L95.9564 176.746C96.4391 177.867 96.9428 178.976 97.4465 180.054L92.3901 182.439ZM297.871 182.409L292.815 180.024C293.328 178.924 293.832 177.804 294.316 176.695L299.453 178.905C298.94 180.066 298.415 181.248 297.871 182.409ZM89.3696 175.421C88.8965 174.228 88.454 173.015 88.0327 171.824L93.3037 169.973C93.7059 171.103 94.1273 172.255 94.5678 173.385L89.3696 175.421ZM300.903 175.348L295.692 173.314C296.134 172.184 296.555 171.032 296.956 169.891L302.238 171.741C301.817 172.944 301.365 174.157 300.903 175.348ZM86.8203 168.184C86.4391 166.972 86.0694 165.738 85.7304 164.506L91.1164 163.016C91.4343 164.177 91.7829 165.359 92.1545 166.51L86.8203 168.184ZM303.451 168.092L298.118 166.428C298.478 165.267 298.827 164.085 299.145 162.934L304.54 164.424C304.201 165.625 303.832 166.87 303.451 168.092ZM84.7747 160.796C84.4778 159.551 84.1886 158.287 83.9434 157.055L89.4194 155.935C89.6569 157.105 89.9231 158.308 90.2104 159.49L84.7747 160.796ZM305.496 160.702L300.06 159.398C300.338 158.225 300.604 157.034 300.852 155.841L306.329 156.961C306.073 158.206 305.784 159.469 305.496 160.702ZM83.2328 153.293C83.0183 152.029 82.8229 150.755 82.6582 149.5L88.1974 148.749C88.3621 149.943 88.546 151.144 88.7528 152.347L83.2328 153.293ZM307.028 153.19L301.508 152.255C301.715 151.063 301.899 149.849 302.054 148.658L307.593 149.408C307.438 150.652 307.243 151.937 307.028 153.19ZM82.2062 145.687C82.0817 144.422 81.9687 143.139 81.8863 141.875L87.4676 141.494C87.55 142.697 87.6515 143.921 87.776 145.122L82.2062 145.687ZM308.055 145.585L302.485 145.02C302.608 143.817 302.711 142.605 302.794 141.392L308.373 141.762C308.281 143.047 308.178 144.33 308.055 145.585ZM81.6929 138.042C81.6508 136.766 81.6297 135.483 81.6201 134.207L87.211 134.197C87.211 135.41 87.2301 136.632 87.2723 137.846L81.6929 138.042ZM308.559 137.948L302.968 137.764C303.01 136.561 303.029 135.337 303.029 134.115V133.92H308.62V134.115C308.62 135.389 308.599 136.674 308.559 137.948ZM87.2723 130.56L81.6814 130.384C81.7235 129.1 81.7848 127.815 81.8672 126.551L87.4466 126.92C87.3642 128.123 87.3125 129.345 87.2723 130.56ZM302.968 130.271C302.928 129.049 302.866 127.825 302.784 126.633L308.363 126.252C308.446 127.507 308.519 128.801 308.559 130.075L302.968 130.271ZM87.7454 123.293L82.1756 122.737C82.2981 121.484 82.4533 120.199 82.6161 118.935L88.1552 119.674C88.0116 120.877 87.8679 122.09 87.7454 123.293ZM302.464 122.996C302.342 121.802 302.198 120.58 302.033 119.377L307.572 118.617C307.747 119.881 307.902 121.164 308.024 122.419L302.464 122.996ZM88.7107 116.067L83.1926 115.142C83.409 113.889 83.6446 112.614 83.8917 111.37L89.3696 112.481C89.1416 113.663 88.9156 114.864 88.7107 116.067ZM301.478 115.78C301.273 114.588 301.047 113.374 300.8 112.192L306.278 111.062C306.534 112.305 306.77 113.569 306.986 114.824L301.478 115.78ZM90.1702 108.924L84.7345 107.629C85.0313 106.396 85.3512 105.143 85.6902 103.919L91.0857 105.4C90.7563 106.561 90.4479 107.754 90.1702 108.924ZM300.009 108.637C299.721 107.465 299.413 106.273 299.093 105.113L304.479 103.611C304.818 104.835 305.148 106.088 305.444 107.321L300.009 108.637ZM92.1028 101.894L86.759 100.23C87.1382 99.027 87.5385 97.7934 87.9714 96.5809L93.2539 98.4313C92.8421 99.5825 92.4628 100.755 92.1028 101.894ZM298.057 101.617C297.685 100.456 297.295 99.2951 296.906 98.165L302.177 96.3031C302.598 97.4965 303.01 98.7186 303.389 99.9426L298.057 101.617ZM94.518 94.9987L89.3064 92.974C89.7699 91.7921 90.2525 90.6007 90.7563 89.4188L95.8951 91.6178C95.422 92.7384 94.9489 93.8781 94.518 94.9987ZM295.63 94.7516C295.19 93.631 294.726 92.5009 294.253 91.3918L299.392 89.1717C299.896 90.344 300.388 91.5259 300.852 92.7077L295.63 94.7516ZM97.3948 88.2868L92.3288 85.9135C92.8727 84.7623 93.4377 83.6015 94.0238 82.4598L99.0075 85.0094C98.454 86.0878 97.9081 87.1873 97.3948 88.2868ZM292.753 88.0818C292.24 86.9919 291.694 85.8924 291.15 84.8236L296.124 82.2645C296.699 83.3946 297.276 84.5458 297.82 85.697L292.753 88.0818ZM100.724 81.7913L95.8319 79.0694C96.4487 77.9584 97.096 76.8378 97.7549 75.7498L102.553 78.6269C101.917 79.6747 101.31 80.734 100.724 81.7913ZM289.425 81.617C288.839 80.5597 288.222 79.5004 287.594 78.4718L292.384 75.5851C293.041 76.675 293.679 77.7841 294.305 78.8932L289.425 81.617ZM104.476 75.5334L99.7794 72.4916C100.467 71.4227 101.187 70.3539 101.917 69.3042L106.51 72.5012C105.822 73.4991 105.133 74.5163 104.476 75.5334ZM285.672 75.3782C285.016 74.3611 284.326 73.344 283.638 72.3575L288.222 69.1509C288.952 70.1891 289.67 71.258 290.359 72.3268L285.672 75.3782ZM108.647 69.5417L104.167 66.1915C104.937 65.1629 105.728 64.1457 106.519 63.1593L110.888 66.6531C110.128 67.5994 109.377 68.5648 108.647 69.5417ZM281.501 69.4172C280.771 68.4518 280.02 67.4864 279.269 66.5401L283.627 63.0367C284.429 64.0232 285.211 65.0403 285.981 66.0574L281.501 69.4172ZM113.21 63.8584L108.965 60.2094C109.799 59.244 110.651 58.2767 111.515 57.3419L115.637 61.125C114.813 62.0176 114.001 62.9332 113.21 63.8584ZM276.939 63.7339C276.146 62.8202 275.335 61.9046 274.512 61.012L278.622 57.2193C279.486 58.1541 280.34 59.1195 281.171 60.0753L276.939 63.7339ZM118.144 58.4835L114.156 54.5663C115.05 53.6622 115.964 52.7581 116.889 51.8751L120.743 55.9244C119.86 56.7672 118.986 57.6196 118.144 58.4835ZM271.995 58.3801C271.152 57.5162 270.279 56.6638 269.394 55.8306L273.248 51.7716C274.173 52.6451 275.098 53.5492 275.983 54.4533L271.995 58.3801ZM123.415 53.4573L119.695 49.2738C120.641 48.431 121.616 47.5997 122.593 46.776L126.169 51.0725C125.244 51.8636 124.319 52.6662 123.415 53.4573ZM266.713 53.3538C265.818 52.5532 264.883 51.762 263.949 50.9805L267.513 46.6745C268.501 47.4962 269.476 48.3295 270.423 49.1723L266.713 53.3538ZM129.027 48.8007L125.594 44.3816C126.6 43.602 127.628 42.8301 128.657 42.0907L131.934 46.6228C130.957 47.3315 129.971 48.0613 129.027 48.8007ZM261.091 48.7087C260.135 47.9694 259.158 47.2396 258.172 46.5308L261.44 41.9968C262.478 42.7477 263.516 43.5197 264.514 44.2897L261.091 48.7087ZM134.914 44.5368L131.8 39.8917C132.859 39.1811 133.938 38.4723 135.006 37.8038L137.977 42.5428C136.948 43.1902 135.922 43.8587 134.914 44.5368ZM255.182 44.4334C254.184 43.7648 253.148 43.0982 252.12 42.4508L255.079 37.7023C256.169 38.3804 257.247 39.0795 258.306 39.7883L255.182 44.4334ZM141.091 40.6713L138.285 35.8308C139.385 35.1949 140.505 34.5666 141.626 33.9709L144.267 38.9052C143.198 39.4799 142.129 40.066 141.091 40.6713ZM248.986 40.5794C247.948 39.9741 246.868 39.3879 245.799 38.8114L248.431 33.879C249.561 34.4843 250.691 35.1125 251.79 35.7389L248.986 40.5794ZM147.504 37.2387L145.037 32.224C146.167 31.6685 147.339 31.113 148.49 30.59L150.793 35.6872C149.682 36.191 148.582 36.7158 147.504 37.2387ZM242.541 37.1468C241.453 36.6124 240.342 36.0875 239.233 35.5952L241.524 30.4866C242.687 31.0115 243.857 31.5555 244.998 32.1205L242.541 37.1468ZM154.121 34.2582L151.995 29.0902C153.177 28.6056 154.378 28.1344 155.56 27.6919L157.513 32.9327C156.383 33.3445 155.242 33.7966 154.121 34.2582ZM235.883 34.1567C234.751 33.6932 233.6 33.2526 232.47 32.8312L234.412 27.5789C235.594 28.0214 236.806 28.483 238 28.9657L235.883 34.1567ZM160.955 31.7106L159.187 26.4066C160.39 26.0063 161.624 25.6155 162.846 25.2554L164.439 30.6207C163.267 30.9693 162.097 31.3294 160.955 31.7106ZM229.028 31.6282C227.868 31.2471 226.705 30.8774 225.554 30.5383L227.126 25.173C228.339 25.5331 229.572 25.9143 230.785 26.3147L229.028 31.6282ZM167.944 29.6438L166.537 24.2287C167.768 23.9088 169.023 23.6004 170.266 23.3226L171.478 28.7818C170.296 29.0576 169.115 29.3469 167.944 29.6438ZM222.03 29.5729C220.848 29.2645 219.657 28.9868 218.484 28.7301L219.687 23.2613C220.909 23.5295 222.164 23.8264 223.416 24.1559L222.03 29.5729ZM175.045 28.0616L174.006 22.5622C175.251 22.3266 176.525 22.1101 177.789 21.9148L178.632 27.4448C177.439 27.6306 176.238 27.8356 175.045 28.0616ZM214.918 28.0003C213.727 27.7743 212.514 27.5789 211.321 27.3931L212.154 21.8649C213.407 22.0488 214.671 22.2653 215.935 22.5009L214.918 28.0003ZM182.248 26.9506L181.591 21.4014C182.865 21.2482 184.15 21.1236 185.405 21.0106L185.876 26.5809C184.684 26.6843 183.461 26.8069 182.248 26.9506ZM207.714 26.9199C206.512 26.7763 205.29 26.6633 204.087 26.5617L204.548 20.9915C205.812 21.093 207.098 21.2271 208.362 21.3707L207.714 26.9199ZM189.515 26.3357L189.226 20.754C190.48 20.6927 191.775 20.6409 193.06 20.6199L193.162 26.2112C191.94 26.2323 190.706 26.2725 189.515 26.3357ZM200.45 26.3242C199.235 26.2629 198.013 26.2227 196.801 26.2112L196.883 20.6199C198.147 20.6409 199.442 20.6831 200.716 20.7444L200.45 26.3242Z" fill="#0CCAFF"/>
</svg>
