<svg width="390" height="269" viewBox="0 0 390 269" fill="none" xmlns="http://www.w3.org/2000/svg">
<rect width="390" height="269" fill="white"/>
<mask id="mask0_36_99" style="mask-type:luminance" maskUnits="userSpaceOnUse" x="84" y="4" width="222" height="261">
<path d="M84 4H306V265H84V4Z" fill="white"/>
</mask>
<g mask="url(#mask0_36_99)">
<path fill-rule="evenodd" clip-rule="evenodd" d="M188.421 6.38827C192.376 4.03139 197.243 4.03139 201.191 6.38827C220.728 18.0342 279.517 53.0885 299.059 64.7344C303.014 67.085 305.446 71.44 305.446 76.1506C305.446 99.4457 305.446 169.548 305.446 192.843C305.446 197.554 303.014 201.909 299.059 204.265C279.523 215.911 220.734 250.966 201.191 262.612C197.237 264.968 192.37 264.968 188.421 262.612C168.885 250.966 110.095 215.911 90.5527 204.265C86.6039 201.909 84.1689 197.56 84.1689 192.849C84.1689 169.554 84.1689 99.452 84.1689 76.1569C84.1689 71.4463 86.6039 67.0913 90.5586 64.7344C110.089 53.0885 168.89 18.0342 188.421 6.38827Z" fill="#283593"/>
</g>
<path fill-rule="evenodd" clip-rule="evenodd" d="M85.7691 199C84.2219 196.8 84 194.713 84 191.903C84 168.774 84 99.1537 84 76.0182C84 71.3352 86.4258 67.0105 90.3634 64.6752C109.803 53.1122 168.319 18.3005 187.758 6.7312C191.695 4.38968 197.026 4.43997 200.964 6.78149C220.406 18.3445 278.721 52.8576 298.163 64.4238C299.731 65.3604 300.929 66.4919 302 67.9816L85.7691 199Z" fill="#5C6BC0"/>
<path fill-rule="evenodd" clip-rule="evenodd" d="M194.999 48C240.259 48 277 86.7595 277 134.5C277 182.241 240.259 221 194.999 221C149.741 221 113 182.241 113 134.5C113 86.7595 149.741 48 194.999 48ZM194.999 91.2516C217.626 91.2516 236.001 110.625 236.001 134.5C236.001 158.369 217.626 177.748 194.999 177.748C172.374 177.748 153.999 158.369 153.999 134.5C153.999 110.625 172.368 91.2516 194.999 91.2516Z" fill="white"/>
<mask id="mask1_36_99" style="mask-type:luminance" maskUnits="userSpaceOnUse" x="191" y="67" width="115" height="133">
<path d="M191.685 67.6389H306V199.75H191.685V67.6389Z" fill="white"/>
</mask>
<g mask="url(#mask1_36_99)">
<path fill-rule="evenodd" clip-rule="evenodd" d="M302.448 67.7334C305.452 70.7228 305.396 75.2257 305.396 78.7689C305.396 102.24 305.209 169.001 305.446 192.472C305.47 194.92 304.708 197.5 303.565 199.442L192.438 134.5L302.448 67.7334Z" fill="#3949AB"/>
</g>
</svg>
