<svg xmlns="http://www.w3.org/2000/svg" xmlns:xlink="http://www.w3.org/1999/xlink" width="1920" zoomAndPan="magnify" viewBox="0 0 1440 809.999993" height="1080" preserveAspectRatio="xMidYMid meet" version="1.0"><defs><filter x="0%" y="0%" width="100%" height="100%" id="e2a3ab6fc7"><feColorMatrix values="0 0 0 0 1 0 0 0 0 1 0 0 0 0 1 0 0 0 1 0" color-interpolation-filters="sRGB"/></filter><mask id="380b362b17"><g filter="url(#e2a3ab6fc7)"><rect x="-144" width="1728" fill="#000000" y="-80.999999" height="971.999992" fill-opacity="0.96"/></g></mask><clipPath id="2ffb158efb"><path d="M 0.199219 0.320312 L 286 0.320312 L 286 322 L 0.199219 322 Z M 0.199219 0.320312 " clip-rule="nonzero"/></clipPath><clipPath id="1cb930f64c"><rect x="0" width="287" y="0" height="323"/></clipPath></defs><rect x="-144" width="1728" fill="#ffffff" y="-80.999999" height="971.999992" fill-opacity="1"/><rect x="-144" width="1728" fill="#ffffff" y="-80.999999" height="971.999992" fill-opacity="1"/><g mask="url(#380b362b17)"><g transform="matrix(1, 0, 0, 1, 577, 244)"><g clip-path="url(#1cb930f64c)"><g clip-path="url(#2ffb158efb)"><path fill="#263a85" d="M 285.695312 94.960938 C 285.695312 89.566406 284.535156 84.800781 282.199219 80.707031 C 279.910156 76.683594 276.480469 73.3125 271.878906 70.648438 C 233.875 48.734375 195.84375 26.890625 157.847656 4.957031 C 147.609375 -0.957031 137.679688 -0.738281 127.515625 5.257812 C 112.394531 14.179688 36.660156 57.566406 14.085938 70.636719 C 4.800781 76.015625 0.277344 84.25 0.277344 94.949219 C 0.261719 139.019531 0.277344 183.082031 0.261719 227.152344 C 0.261719 232.425781 1.367188 237.09375 3.597656 241.125 C 5.890625 245.269531 9.371094 248.742188 14.082031 251.464844 C 36.648438 264.535156 112.382812 307.914062 127.507812 316.835938 C 137.683594 322.84375 147.613281 323.058594 157.855469 317.136719 C 195.847656 295.203125 233.890625 273.355469 271.894531 251.457031 C 276.609375 248.730469 280.082031 245.257812 282.382812 241.113281 C 284.605469 237.09375 285.710938 232.414062 285.710938 227.128906 C 285.710938 227.128906 285.710938 139.03125 285.699219 94.960938 " fill-opacity="1" fill-rule="nonzero"/></g><path fill="#151a24" d="M 143.417969 160.621094 L 3.601562 241.125 C 5.890625 245.265625 9.371094 248.738281 14.082031 251.464844 C 36.648438 264.53125 112.382812 307.910156 127.507812 316.835938 C 137.683594 322.84375 147.613281 323.054688 157.855469 317.136719 C 195.847656 295.203125 233.890625 273.355469 271.894531 251.453125 C 276.609375 248.730469 280.082031 245.253906 282.382812 241.113281 L 143.425781 160.621094 " fill-opacity="1" fill-rule="nonzero"/><path fill="#151a24" d="M 102.007812 184.464844 C 110.144531 198.671875 125.4375 208.253906 142.984375 208.253906 C 160.640625 208.253906 176.019531 198.546875 184.117188 184.195312 L 143.417969 160.621094 L 102.007812 184.464844 " fill-opacity="1" fill-rule="nonzero"/><path fill="#2b53f2" d="M 285.695312 94.960938 C 285.695312 89.566406 284.535156 84.800781 282.199219 80.707031 L 143.417969 160.621094 L 282.378906 241.113281 C 284.601562 237.089844 285.707031 232.410156 285.707031 227.128906 C 285.707031 227.128906 285.707031 139.03125 285.695312 94.960938 " fill-opacity="1" fill-rule="nonzero"/><path fill="#ffffff" d="M 278.058594 166.371094 L 267.199219 166.371094 L 267.199219 177.226562 L 256.332031 177.226562 L 256.332031 166.371094 L 245.476562 166.371094 L 245.476562 155.515625 L 256.332031 155.515625 L 256.332031 144.660156 L 267.199219 144.660156 L 267.199219 155.515625 L 278.058594 155.515625 L 278.058594 166.371094 " fill-opacity="1" fill-rule="nonzero"/><path fill="#ffffff" d="M 238.429688 166.371094 L 227.574219 166.371094 L 227.574219 177.226562 L 216.71875 177.226562 L 216.71875 166.371094 L 205.863281 166.371094 L 205.863281 155.515625 L 216.71875 155.515625 L 216.71875 144.660156 L 227.574219 144.660156 L 227.574219 155.515625 L 238.429688 155.515625 L 238.429688 166.371094 " fill-opacity="1" fill-rule="nonzero"/><path fill="#ffffff" d="M 184.117188 184.195312 C 176.019531 198.546875 160.640625 208.253906 142.984375 208.253906 C 125.4375 208.253906 110.144531 198.671875 102.007812 184.464844 C 98.054688 177.5625 95.78125 169.578125 95.78125 161.042969 C 95.78125 134.976562 116.917969 113.847656 142.984375 113.847656 C 160.417969 113.847656 175.628906 123.304688 183.804688 137.367188 L 225.0625 113.613281 C 208.667969 85.300781 178.054688 66.257812 142.984375 66.257812 C 90.632812 66.257812 48.191406 108.695312 48.191406 161.042969 C 48.191406 178.222656 52.761719 194.328125 60.746094 208.21875 C 77.105469 236.679688 107.808594 255.84375 142.984375 255.84375 C 178.230469 255.84375 208.980469 236.601562 225.308594 208.0625 L 184.117188 184.195312 " fill-opacity="1" fill-rule="nonzero"/></g></g></g></svg>