<svg width="390" height="269" viewBox="0 0 390 269" fill="none" xmlns="http://www.w3.org/2000/svg">
<g clip-path="url(#clip0_36_18)">
<rect width="390" height="269" fill="white"/>
<g clip-path="url(#clip1_36_18)">
<path d="M882.6 521.5H-492.6V-252.5H882.6V521.5Z" fill="white"/>
<path d="M882.6 521.5H-492.6V-252.5H882.6V521.5Z" fill="white"/>
<mask id="mask0_36_18" style="mask-type:luminance" maskUnits="userSpaceOnUse" x="-493" y="-253" width="1376" height="775">
<path d="M882.6 521.5H-492.6V-252.5H882.6V521.5Z" fill="black" fill-opacity="0.96"/>
</mask>
<g mask="url(#mask0_36_18)">
<mask id="mask1_36_18" style="mask-type:luminance" maskUnits="userSpaceOnUse" x="81" y="5" width="229" height="258">
<path d="M309.6 262.704H81.1958V5.49988H309.6V262.704Z" fill="white"/>
</mask>
<g mask="url(#mask1_36_18)">
<mask id="mask2_36_18" style="mask-type:luminance" maskUnits="userSpaceOnUse" x="81" y="6" width="228" height="257">
<path d="M81.3545 262.448H308.804V6.29614H81.3545V262.448Z" fill="white"/>
</mask>
<g mask="url(#mask2_36_18)">
<path d="M308.562 187.087C308.562 191.382 307.639 195.177 305.78 198.437C303.958 201.641 301.228 204.325 297.566 206.447C267.322 223.897 237.055 241.291 206.816 258.756C198.668 263.466 190.766 263.292 182.677 258.517C170.643 251.412 110.371 216.864 92.4061 206.456C85.0166 202.173 81.4167 195.616 81.4167 187.096C81.4043 152.003 81.4167 116.916 81.4043 81.8231C81.4043 77.6239 82.2841 73.9068 84.0591 70.6967C85.884 67.3964 88.6538 64.6312 92.403 62.4631C110.362 52.0553 170.634 17.5128 182.671 10.4084C190.769 5.62436 198.672 5.45328 206.823 10.1688C237.058 27.6345 267.334 45.0317 297.579 62.4693C301.331 64.6405 304.095 67.4058 305.926 70.706C307.695 73.9068 308.574 77.6332 308.574 81.8417C308.574 81.8417 308.574 151.994 308.565 187.087" fill="#263A85"/>
</g>
<path d="M195.333 134.802L84.0623 70.6966C85.884 67.3994 88.6538 64.6341 92.403 62.463C110.362 52.0582 170.634 17.5158 182.671 10.4082C190.769 5.62421 198.672 5.45624 206.823 10.1687C237.058 27.6343 267.334 45.0315 297.579 62.4723C301.331 64.6403 304.095 67.4087 305.926 70.7059L195.339 134.802" fill="#151A24"/>
<path d="M162.377 115.815C168.853 104.502 181.023 96.8717 194.988 96.8717C209.039 96.8717 221.278 104.601 227.723 116.029L195.333 134.802L162.377 115.815Z" fill="#151A24"/>
<path d="M308.562 187.086C308.562 191.382 307.639 195.177 305.779 198.437L195.333 134.801L305.922 70.7059C307.691 73.9097 308.571 77.6361 308.571 81.8416C308.571 81.8416 308.571 151.993 308.562 187.086Z" fill="#2B53F2"/>
<path d="M302.484 130.223H293.842V121.579H285.194V130.223H276.554V138.867H285.194V147.511H293.842V138.867H302.484V130.223Z" fill="white"/>
<path d="M270.946 130.223H262.307V121.579H253.668V130.223H245.029V138.867H253.668V147.511H262.307V138.867H270.946V130.223Z" fill="white"/>
<path d="M227.723 116.029C221.278 104.601 209.039 96.8717 194.988 96.8717C181.023 96.8717 168.853 104.502 162.377 115.815C159.231 121.311 157.422 127.669 157.422 134.466C157.422 155.222 174.243 172.047 194.988 172.047C208.862 172.047 220.967 164.516 227.474 153.318L260.308 172.234C247.261 194.779 222.898 209.943 194.988 209.943C153.325 209.943 119.548 176.15 119.548 134.466C119.548 120.785 123.186 107.961 129.54 96.8997C142.559 74.2363 166.994 58.976 194.988 58.976C223.038 58.976 247.51 74.2985 260.504 97.0241L227.723 116.029Z" fill="white"/>
</g>
</g>
</g>
</g>
<defs>
<clipPath id="clip0_36_18">
<rect width="390" height="269" fill="white"/>
</clipPath>
<clipPath id="clip1_36_18">
<rect width="1146" height="645" fill="white" transform="matrix(1 0 0 -1 -378 457)"/>
</clipPath>
</defs>
</svg>
